<mxfile host="app.diagrams.net" modified="2023-05-06T16:27:02.331Z" agent="Mozilla/5.0 (X11; Linux x86_64; rv:102.0) Gecko/20100101 Firefox/102.0" etag="Hxo1bHtmqeM-k7sRWUzK" version="21.2.9" type="github">
  <diagram name="Page-1" id="4MP_wHTS5IgblKxHbQpP">
    <mxGraphModel dx="2428" dy="1917" grid="1" gridSize="10" guides="1" tooltips="1" connect="1" arrows="1" fold="1" page="1" pageScale="1" pageWidth="850" pageHeight="1100" math="0" shadow="0">
      <root>
        <mxCell id="0" />
        <mxCell id="1" parent="0" />
        <mxCell id="YDw4J4Mv-UTdzmyMiHi0-5" value="" style="rounded=0;whiteSpace=wrap;html=1;fillColor=none;strokeWidth=3;" parent="1" vertex="1">
          <mxGeometry x="-120" y="-860" width="100" height="680" as="geometry" />
        </mxCell>
        <mxCell id="YDw4J4Mv-UTdzmyMiHi0-13" value="&lt;div style=&quot;font-size: 24px;&quot;&gt;&lt;font style=&quot;font-size: 24px;&quot;&gt;Front of Property&lt;/font&gt;&lt;/div&gt;" style="text;html=1;strokeColor=none;fillColor=none;align=center;verticalAlign=middle;whiteSpace=wrap;rounded=0;movable=1;resizable=1;rotatable=1;deletable=1;editable=1;locked=0;connectable=1;" parent="1" vertex="1">
          <mxGeometry x="-150" y="-70" width="60" height="30" as="geometry" />
        </mxCell>
        <mxCell id="YDw4J4Mv-UTdzmyMiHi0-17" value="&lt;font style=&quot;font-size: 16px;&quot;&gt;&lt;b&gt;Garage Garden&lt;br&gt;&lt;/b&gt;&lt;/font&gt;" style="text;html=1;strokeColor=none;fillColor=none;align=center;verticalAlign=middle;whiteSpace=wrap;rounded=0;movable=1;resizable=1;rotatable=1;deletable=1;editable=1;locked=0;connectable=1;" parent="1" vertex="1">
          <mxGeometry x="-90" y="-914" width="60" height="30" as="geometry" />
        </mxCell>
        <mxCell id="iHK89jVl_XGPjr_3aYdO-12" value="Diamond Garden" style="group;fontStyle=1;fontSize=16;" vertex="1" connectable="0" parent="1">
          <mxGeometry x="-810" y="80" width="525" height="690" as="geometry" />
        </mxCell>
        <mxCell id="bcS_UFgCMEz7GKeuc2ld-8" value="" style="verticalLabelPosition=bottom;verticalAlign=top;html=1;shape=mxgraph.basic.polygon;polyCoords=[[0.21,0.13],[0.6,0.38],[0.92,0.6],[0.66,1],[0.48,1],[0.25,1],[0,1],[0,0]];polyline=0;movable=1;resizable=1;rotatable=1;deletable=1;editable=1;locked=0;connectable=1;gradientColor=none;fillColor=none;strokeWidth=3;container=0;" parent="iHK89jVl_XGPjr_3aYdO-12" vertex="1">
          <mxGeometry x="8" y="10" width="520" height="680" as="geometry" />
        </mxCell>
        <mxCell id="onrP9M23zTc9Jmrbzn4V-1" value="Roma Tomato" style="shape=image;html=1;verticalAlign=top;verticalLabelPosition=bottom;labelBackgroundColor=#ffffff;imageAspect=0;aspect=fixed;image=https://cdn1.iconfinder.com/data/icons/icons-for-a-site-1/64/advantage_eco_friendly-128.png;container=0;" parent="iHK89jVl_XGPjr_3aYdO-12" vertex="1">
          <mxGeometry x="10" y="610" width="80" height="80" as="geometry" />
        </mxCell>
        <mxCell id="onrP9M23zTc9Jmrbzn4V-4" value="&lt;div&gt;Pink Bumblebee Tomato&lt;/div&gt;" style="shape=image;html=1;verticalAlign=top;verticalLabelPosition=bottom;labelBackgroundColor=#ffffff;imageAspect=0;aspect=fixed;image=https://cdn1.iconfinder.com/data/icons/icons-for-a-site-1/64/advantage_eco_friendly-128.png;container=0;" parent="iHK89jVl_XGPjr_3aYdO-12" vertex="1">
          <mxGeometry x="170" y="450" width="80" height="80" as="geometry" />
        </mxCell>
        <mxCell id="onrP9M23zTc9Jmrbzn4V-5" value="&lt;div&gt;Pineapple Tomato&lt;/div&gt;" style="shape=image;html=1;verticalAlign=top;verticalLabelPosition=bottom;labelBackgroundColor=#ffffff;imageAspect=0;aspect=fixed;image=https://cdn1.iconfinder.com/data/icons/icons-for-a-site-1/64/advantage_eco_friendly-128.png;container=0;" parent="iHK89jVl_XGPjr_3aYdO-12" vertex="1">
          <mxGeometry x="90" y="450" width="80" height="80" as="geometry" />
        </mxCell>
        <mxCell id="onrP9M23zTc9Jmrbzn4V-6" value="Roma Tomato" style="shape=image;html=1;verticalAlign=top;verticalLabelPosition=bottom;labelBackgroundColor=#ffffff;imageAspect=0;aspect=fixed;image=https://cdn1.iconfinder.com/data/icons/icons-for-a-site-1/64/advantage_eco_friendly-128.png;container=0;" parent="iHK89jVl_XGPjr_3aYdO-12" vertex="1">
          <mxGeometry x="90" y="610" width="80" height="80" as="geometry" />
        </mxCell>
        <mxCell id="onrP9M23zTc9Jmrbzn4V-7" value="&lt;div&gt;Pink Bumblebee Tomato&lt;/div&gt;" style="shape=image;html=1;verticalAlign=top;verticalLabelPosition=bottom;labelBackgroundColor=#ffffff;imageAspect=0;aspect=fixed;image=https://cdn1.iconfinder.com/data/icons/icons-for-a-site-1/64/advantage_eco_friendly-128.png;container=0;" parent="iHK89jVl_XGPjr_3aYdO-12" vertex="1">
          <mxGeometry x="170" y="610" width="80" height="80" as="geometry" />
        </mxCell>
        <mxCell id="onrP9M23zTc9Jmrbzn4V-8" value="&lt;div&gt;Pineapple Tomato&lt;/div&gt;" style="shape=image;html=1;verticalAlign=top;verticalLabelPosition=bottom;labelBackgroundColor=#ffffff;imageAspect=0;aspect=fixed;image=https://cdn1.iconfinder.com/data/icons/icons-for-a-site-1/64/advantage_eco_friendly-128.png;container=0;" parent="iHK89jVl_XGPjr_3aYdO-12" vertex="1">
          <mxGeometry x="10" y="450" width="80" height="80" as="geometry" />
        </mxCell>
        <mxCell id="onrP9M23zTc9Jmrbzn4V-9" value="Tomatillo" style="shape=image;html=1;verticalAlign=top;verticalLabelPosition=bottom;labelBackgroundColor=#ffffff;imageAspect=0;image=https://cdn1.iconfinder.com/data/icons/icons-for-a-site-1/64/advantage_eco_friendly-128.png;rotation=90;container=0;" parent="iHK89jVl_XGPjr_3aYdO-12" vertex="1">
          <mxGeometry x="30" y="270" width="80" height="120" as="geometry" />
        </mxCell>
        <mxCell id="onrP9M23zTc9Jmrbzn4V-11" value="Tomatillo" style="shape=image;html=1;verticalAlign=top;verticalLabelPosition=bottom;labelBackgroundColor=#ffffff;imageAspect=0;image=https://cdn1.iconfinder.com/data/icons/icons-for-a-site-1/64/advantage_eco_friendly-128.png;rotation=90;container=0;" parent="iHK89jVl_XGPjr_3aYdO-12" vertex="1">
          <mxGeometry x="30" y="110" width="80" height="120" as="geometry" />
        </mxCell>
        <mxCell id="onrP9M23zTc9Jmrbzn4V-12" value="Tomatillo" style="shape=image;html=1;verticalAlign=top;verticalLabelPosition=bottom;labelBackgroundColor=#ffffff;imageAspect=0;image=https://cdn1.iconfinder.com/data/icons/icons-for-a-site-1/64/advantage_eco_friendly-128.png;rotation=90;container=0;" parent="iHK89jVl_XGPjr_3aYdO-12" vertex="1">
          <mxGeometry x="30" y="190" width="80" height="120" as="geometry" />
        </mxCell>
        <mxCell id="onrP9M23zTc9Jmrbzn4V-13" value="French Bean" style="shape=image;html=1;verticalAlign=top;verticalLabelPosition=bottom;labelBackgroundColor=#ffffff;imageAspect=0;aspect=fixed;image=https://cdn1.iconfinder.com/data/icons/icons-for-a-site-1/64/advantage_eco_friendly-128.png;container=0;" parent="iHK89jVl_XGPjr_3aYdO-12" vertex="1">
          <mxGeometry x="320" y="480" width="20" height="20" as="geometry" />
        </mxCell>
        <mxCell id="onrP9M23zTc9Jmrbzn4V-14" value="&lt;div&gt;Jade Bean&lt;/div&gt;" style="shape=image;html=1;verticalAlign=top;verticalLabelPosition=bottom;labelBackgroundColor=#ffffff;imageAspect=0;image=https://cdn1.iconfinder.com/data/icons/icons-for-a-site-1/64/advantage_eco_friendly-128.png;container=0;" parent="iHK89jVl_XGPjr_3aYdO-12" vertex="1">
          <mxGeometry x="340" y="430" width="20" height="20" as="geometry" />
        </mxCell>
        <mxCell id="onrP9M23zTc9Jmrbzn4V-15" value="Dragon Bean" style="shape=image;html=1;verticalAlign=top;verticalLabelPosition=bottom;labelBackgroundColor=#ffffff;imageAspect=0;aspect=fixed;image=https://cdn1.iconfinder.com/data/icons/icons-for-a-site-1/64/advantage_eco_friendly-128.png;container=0;" parent="iHK89jVl_XGPjr_3aYdO-12" vertex="1">
          <mxGeometry x="390" y="460" width="20" height="20" as="geometry" />
        </mxCell>
        <mxCell id="onrP9M23zTc9Jmrbzn4V-22" value="Echinacea" style="shape=image;html=1;verticalAlign=top;verticalLabelPosition=bottom;labelBackgroundColor=#ffffff;imageAspect=0;aspect=fixed;image=https://cdn1.iconfinder.com/data/icons/icons-for-a-site-1/64/advantage_eco_friendly-128.png;container=0;" parent="iHK89jVl_XGPjr_3aYdO-12" vertex="1">
          <mxGeometry x="330" y="570" width="80" height="80" as="geometry" />
        </mxCell>
        <mxCell id="onrP9M23zTc9Jmrbzn4V-23" value="Echinacea" style="shape=image;html=1;verticalAlign=top;verticalLabelPosition=bottom;labelBackgroundColor=#ffffff;imageAspect=0;aspect=fixed;image=https://cdn1.iconfinder.com/data/icons/icons-for-a-site-1/64/advantage_eco_friendly-128.png;container=0;" parent="iHK89jVl_XGPjr_3aYdO-12" vertex="1">
          <mxGeometry width="80" height="80" as="geometry" />
        </mxCell>
        <mxCell id="iHK89jVl_XGPjr_3aYdO-30" value="Mint &amp;amp; Strawberry" style="ellipse;whiteSpace=wrap;html=1;aspect=fixed;" vertex="1" parent="iHK89jVl_XGPjr_3aYdO-12">
          <mxGeometry x="410" y="260" width="80" height="80" as="geometry" />
        </mxCell>
        <mxCell id="iHK89jVl_XGPjr_3aYdO-29" value="Chocolate Mint" style="ellipse;whiteSpace=wrap;html=1;aspect=fixed;" vertex="1" parent="iHK89jVl_XGPjr_3aYdO-12">
          <mxGeometry x="320" y="180" width="80" height="80" as="geometry" />
        </mxCell>
        <mxCell id="iHK89jVl_XGPjr_3aYdO-28" value="Thyme" style="ellipse;whiteSpace=wrap;html=1;aspect=fixed;" vertex="1" parent="iHK89jVl_XGPjr_3aYdO-12">
          <mxGeometry x="228" y="100" width="80" height="80" as="geometry" />
        </mxCell>
        <mxCell id="iHK89jVl_XGPjr_3aYdO-13" value="" style="group" vertex="1" connectable="0" parent="1">
          <mxGeometry x="-843.3012701892219" y="-1070" width="733.3012701892219" height="423.5640646055101" as="geometry" />
        </mxCell>
        <mxCell id="bcS_UFgCMEz7GKeuc2ld-10" value="&lt;div style=&quot;font-size: 24px;&quot;&gt;&lt;font style=&quot;font-size: 24px;&quot;&gt;Rear of Property&lt;/font&gt;&lt;/div&gt;" style="text;html=1;strokeColor=none;fillColor=none;align=center;verticalAlign=middle;whiteSpace=wrap;rounded=0;movable=1;resizable=1;rotatable=1;deletable=1;editable=1;locked=0;connectable=1;" parent="iHK89jVl_XGPjr_3aYdO-13" vertex="1">
          <mxGeometry x="153.3012701892219" width="60" height="30" as="geometry" />
        </mxCell>
        <mxCell id="iHK89jVl_XGPjr_3aYdO-10" value="" style="group" vertex="1" connectable="0" parent="iHK89jVl_XGPjr_3aYdO-13">
          <mxGeometry y="20" width="733.3012701892219" height="403.56406460551017" as="geometry" />
        </mxCell>
        <mxCell id="YDw4J4Mv-UTdzmyMiHi0-7" value="" style="ellipse;whiteSpace=wrap;html=1;strokeColor=default;fillColor=none;strokeWidth=3;" parent="iHK89jVl_XGPjr_3aYdO-10" vertex="1">
          <mxGeometry x="533.3012701892219" y="60" width="200" height="80" as="geometry" />
        </mxCell>
        <mxCell id="YDw4J4Mv-UTdzmyMiHi0-8" value="" style="ellipse;whiteSpace=wrap;html=1;strokeColor=default;fillColor=none;strokeWidth=3;" parent="iHK89jVl_XGPjr_3aYdO-10" vertex="1">
          <mxGeometry x="213.30127018922195" y="60" width="320" height="80" as="geometry" />
        </mxCell>
        <mxCell id="YDw4J4Mv-UTdzmyMiHi0-12" value="" style="ellipse;whiteSpace=wrap;html=1;strokeColor=default;fillColor=none;strokeWidth=3;rotation=-60;" parent="iHK89jVl_XGPjr_3aYdO-10" vertex="1">
          <mxGeometry x="-36.69872981077805" y="190" width="320" height="100" as="geometry" />
        </mxCell>
        <mxCell id="YDw4J4Mv-UTdzmyMiHi0-18" value="&lt;font style=&quot;font-size: 16px;&quot;&gt;&lt;b&gt;Rear Bed A&lt;br&gt;&lt;/b&gt;&lt;/font&gt;" style="text;html=1;strokeColor=none;fillColor=none;align=center;verticalAlign=middle;whiteSpace=wrap;rounded=0;movable=1;resizable=1;rotatable=1;deletable=1;editable=1;locked=0;connectable=1;" parent="iHK89jVl_XGPjr_3aYdO-10" vertex="1">
          <mxGeometry x="623.3012701892219" width="60" height="30" as="geometry" />
        </mxCell>
        <mxCell id="YDw4J4Mv-UTdzmyMiHi0-19" value="&lt;font style=&quot;font-size: 16px;&quot;&gt;&lt;b&gt;Rear Bed B&lt;br&gt;&lt;/b&gt;&lt;/font&gt;" style="text;html=1;strokeColor=none;fillColor=none;align=center;verticalAlign=middle;whiteSpace=wrap;rounded=0;movable=1;resizable=1;rotatable=1;deletable=1;editable=1;locked=0;connectable=1;" parent="iHK89jVl_XGPjr_3aYdO-10" vertex="1">
          <mxGeometry x="323.30127018922195" width="60" height="30" as="geometry" />
        </mxCell>
        <mxCell id="YDw4J4Mv-UTdzmyMiHi0-20" value="&lt;font style=&quot;font-size: 16px;&quot;&gt;&lt;b&gt;Rear Bed C&lt;br&gt;&lt;/b&gt;&lt;/font&gt;" style="text;html=1;strokeColor=none;fillColor=none;align=center;verticalAlign=middle;whiteSpace=wrap;rounded=0;movable=1;resizable=1;rotatable=1;deletable=1;editable=1;locked=0;connectable=1;" parent="iHK89jVl_XGPjr_3aYdO-10" vertex="1">
          <mxGeometry x="3.3012701892219525" y="150" width="60" height="30" as="geometry" />
        </mxCell>
        <mxCell id="iHK89jVl_XGPjr_3aYdO-1" value="Sunflower" style="shape=image;html=1;verticalAlign=top;verticalLabelPosition=bottom;labelBackgroundColor=#ffffff;imageAspect=0;aspect=fixed;image=https://cdn1.iconfinder.com/data/icons/icons-for-a-site-1/64/advantage_eco_friendly-128.png" vertex="1" parent="iHK89jVl_XGPjr_3aYdO-10">
          <mxGeometry x="23.301270189221952" y="200" width="80" height="80" as="geometry" />
        </mxCell>
        <mxCell id="iHK89jVl_XGPjr_3aYdO-4" value="Angel Hair Squash" style="shape=image;html=1;verticalAlign=top;verticalLabelPosition=bottom;labelBackgroundColor=#ffffff;imageAspect=0;aspect=fixed;image=https://cdn1.iconfinder.com/data/icons/icons-for-a-site-1/64/advantage_eco_friendly-128.png" vertex="1" parent="iHK89jVl_XGPjr_3aYdO-10">
          <mxGeometry x="336.30127018922195" y="56" width="80" height="80" as="geometry" />
        </mxCell>
        <mxCell id="iHK89jVl_XGPjr_3aYdO-5" value="Angel Hair Squash" style="shape=image;html=1;verticalAlign=top;verticalLabelPosition=bottom;labelBackgroundColor=#ffffff;imageAspect=0;aspect=fixed;image=https://cdn1.iconfinder.com/data/icons/icons-for-a-site-1/64/advantage_eco_friendly-128.png" vertex="1" parent="iHK89jVl_XGPjr_3aYdO-10">
          <mxGeometry x="416.30127018922195" y="56" width="80" height="80" as="geometry" />
        </mxCell>
        <mxCell id="iHK89jVl_XGPjr_3aYdO-6" value="Angel Hair Squash" style="shape=image;html=1;verticalAlign=top;verticalLabelPosition=bottom;labelBackgroundColor=#ffffff;imageAspect=0;aspect=fixed;image=https://cdn1.iconfinder.com/data/icons/icons-for-a-site-1/64/advantage_eco_friendly-128.png" vertex="1" parent="iHK89jVl_XGPjr_3aYdO-10">
          <mxGeometry x="256.30127018922195" y="56" width="80" height="80" as="geometry" />
        </mxCell>
        <mxCell id="onrP9M23zTc9Jmrbzn4V-16" value="Golden Squash" style="shape=image;html=1;verticalAlign=top;verticalLabelPosition=bottom;labelBackgroundColor=#ffffff;imageAspect=0;aspect=fixed;image=https://cdn1.iconfinder.com/data/icons/icons-for-a-site-1/64/advantage_eco_friendly-128.png;container=0;" parent="iHK89jVl_XGPjr_3aYdO-10" vertex="1">
          <mxGeometry x="173.30127018922195" y="100" width="80" height="80" as="geometry" />
        </mxCell>
        <mxCell id="onrP9M23zTc9Jmrbzn4V-17" value="Green Squash" style="shape=image;html=1;verticalAlign=top;verticalLabelPosition=bottom;labelBackgroundColor=#ffffff;imageAspect=0;aspect=fixed;image=https://cdn1.iconfinder.com/data/icons/icons-for-a-site-1/64/advantage_eco_friendly-128.png;container=0;" parent="iHK89jVl_XGPjr_3aYdO-10" vertex="1">
          <mxGeometry x="93.30127018922195" y="240" width="80" height="80" as="geometry" />
        </mxCell>
        <mxCell id="onrP9M23zTc9Jmrbzn4V-18" value="Green Squash" style="shape=image;html=1;verticalAlign=top;verticalLabelPosition=bottom;labelBackgroundColor=#ffffff;imageAspect=0;aspect=fixed;image=https://cdn1.iconfinder.com/data/icons/icons-for-a-site-1/64/advantage_eco_friendly-128.png;container=0;" parent="iHK89jVl_XGPjr_3aYdO-10" vertex="1">
          <mxGeometry x="43.30127018922195" y="290" width="80" height="80" as="geometry" />
        </mxCell>
        <mxCell id="onrP9M23zTc9Jmrbzn4V-19" value="Golden Squash" style="shape=image;html=1;verticalAlign=top;verticalLabelPosition=bottom;labelBackgroundColor=#ffffff;imageAspect=0;aspect=fixed;image=https://cdn1.iconfinder.com/data/icons/icons-for-a-site-1/64/advantage_eco_friendly-128.png;container=0;" parent="iHK89jVl_XGPjr_3aYdO-10" vertex="1">
          <mxGeometry x="133.30127018922195" y="170" width="80" height="80" as="geometry" />
        </mxCell>
        <mxCell id="iHK89jVl_XGPjr_3aYdO-8" value="Sunflower" style="shape=image;html=1;verticalAlign=top;verticalLabelPosition=bottom;labelBackgroundColor=#ffffff;imageAspect=0;aspect=fixed;image=https://cdn1.iconfinder.com/data/icons/icons-for-a-site-1/64/advantage_eco_friendly-128.png" vertex="1" parent="iHK89jVl_XGPjr_3aYdO-10">
          <mxGeometry x="63.30127018922195" y="136" width="80" height="80" as="geometry" />
        </mxCell>
        <mxCell id="iHK89jVl_XGPjr_3aYdO-9" value="Sunflower" style="shape=image;html=1;verticalAlign=top;verticalLabelPosition=bottom;labelBackgroundColor=#ffffff;imageAspect=0;aspect=fixed;image=https://cdn1.iconfinder.com/data/icons/icons-for-a-site-1/64/advantage_eco_friendly-128.png" vertex="1" parent="iHK89jVl_XGPjr_3aYdO-10">
          <mxGeometry x="113.30127018922195" y="80" width="80" height="80" as="geometry" />
        </mxCell>
        <mxCell id="iHK89jVl_XGPjr_3aYdO-27" value="" style="group" vertex="1" connectable="0" parent="1">
          <mxGeometry x="-810" y="1160" width="80" height="636.44" as="geometry" />
        </mxCell>
        <mxCell id="YDw4J4Mv-UTdzmyMiHi0-2" value="" style="rounded=0;whiteSpace=wrap;html=1;fillColor=none;strokeWidth=3;container=0;" parent="iHK89jVl_XGPjr_3aYdO-27" vertex="1">
          <mxGeometry x="10" y="36.440000000000055" width="70" height="600" as="geometry" />
        </mxCell>
        <mxCell id="YDw4J4Mv-UTdzmyMiHi0-16" value="&lt;font style=&quot;font-size: 16px;&quot;&gt;&lt;b&gt;Pepper Garden&lt;br&gt;&lt;/b&gt;&lt;/font&gt;" style="text;html=1;strokeColor=none;fillColor=none;align=center;verticalAlign=middle;whiteSpace=wrap;rounded=0;movable=1;resizable=1;rotatable=1;deletable=1;editable=1;locked=0;connectable=1;container=0;" parent="iHK89jVl_XGPjr_3aYdO-27" vertex="1">
          <mxGeometry width="60" height="30" as="geometry" />
        </mxCell>
        <mxCell id="iHK89jVl_XGPjr_3aYdO-16" value="Nadapeno" style="shape=image;html=1;verticalAlign=top;verticalLabelPosition=bottom;labelBackgroundColor=#ffffff;imageAspect=0;image=https://cdn4.iconfinder.com/data/icons/fruits-and-veggies-2/280/fruits-and-veggies-icons_chilli-pepper-128.png;aspect=fixed;container=0;" vertex="1" parent="iHK89jVl_XGPjr_3aYdO-27">
          <mxGeometry x="10" y="36.440000000000055" width="60" height="60" as="geometry" />
        </mxCell>
        <mxCell id="iHK89jVl_XGPjr_3aYdO-17" value="Bell Pepper" style="shape=image;html=1;verticalAlign=top;verticalLabelPosition=bottom;labelBackgroundColor=#ffffff;imageAspect=0;image=https://cdn2.iconfinder.com/data/icons/free-outline-fruit-by-ibrahim-studio/100/Pepper-128.png;container=0;" vertex="1" parent="iHK89jVl_XGPjr_3aYdO-27">
          <mxGeometry x="10" y="456.44000000000005" width="60" height="60" as="geometry" />
        </mxCell>
        <mxCell id="iHK89jVl_XGPjr_3aYdO-18" value="Mini Bell Pepper" style="shape=image;html=1;verticalAlign=top;verticalLabelPosition=bottom;labelBackgroundColor=#ffffff;imageAspect=0;image=https://cdn2.iconfinder.com/data/icons/free-outline-fruit-by-ibrahim-studio/100/Pepper-128.png;container=0;" vertex="1" parent="iHK89jVl_XGPjr_3aYdO-27">
          <mxGeometry x="10" y="336.44000000000005" width="60" height="60" as="geometry" />
        </mxCell>
        <mxCell id="iHK89jVl_XGPjr_3aYdO-19" value="Jalapeno" style="shape=image;html=1;verticalAlign=top;verticalLabelPosition=bottom;labelBackgroundColor=#ffffff;imageAspect=0;image=https://cdn4.iconfinder.com/data/icons/fruits-and-veggies-2/280/fruits-and-veggies-icons_chilli-pepper-128.png;aspect=fixed;container=0;" vertex="1" parent="iHK89jVl_XGPjr_3aYdO-27">
          <mxGeometry x="10" y="516.44" width="60" height="60" as="geometry" />
        </mxCell>
        <mxCell id="iHK89jVl_XGPjr_3aYdO-20" value="Anaheim Pepper" style="shape=image;html=1;verticalAlign=top;verticalLabelPosition=bottom;labelBackgroundColor=#ffffff;imageAspect=0;image=https://cdn2.iconfinder.com/data/icons/free-outline-fruit-by-ibrahim-studio/100/Pepper-128.png;container=0;" vertex="1" parent="iHK89jVl_XGPjr_3aYdO-27">
          <mxGeometry x="10" y="216.44000000000005" width="60" height="60" as="geometry" />
        </mxCell>
        <mxCell id="iHK89jVl_XGPjr_3aYdO-21" value="Anaheim Pepper" style="shape=image;html=1;verticalAlign=top;verticalLabelPosition=bottom;labelBackgroundColor=#ffffff;imageAspect=0;image=https://cdn2.iconfinder.com/data/icons/free-outline-fruit-by-ibrahim-studio/100/Pepper-128.png;container=0;" vertex="1" parent="iHK89jVl_XGPjr_3aYdO-27">
          <mxGeometry x="10" y="276.44000000000005" width="60" height="60" as="geometry" />
        </mxCell>
        <mxCell id="iHK89jVl_XGPjr_3aYdO-22" value="Nadapeno" style="shape=image;html=1;verticalAlign=top;verticalLabelPosition=bottom;labelBackgroundColor=#ffffff;imageAspect=0;image=https://cdn4.iconfinder.com/data/icons/fruits-and-veggies-2/280/fruits-and-veggies-icons_chilli-pepper-128.png;aspect=fixed;container=0;" vertex="1" parent="iHK89jVl_XGPjr_3aYdO-27">
          <mxGeometry x="10" y="96.44000000000005" width="60" height="60" as="geometry" />
        </mxCell>
        <mxCell id="iHK89jVl_XGPjr_3aYdO-24" value="Anaheim Pepper" style="shape=image;html=1;verticalAlign=top;verticalLabelPosition=bottom;labelBackgroundColor=#ffffff;imageAspect=0;image=https://cdn2.iconfinder.com/data/icons/free-outline-fruit-by-ibrahim-studio/100/Pepper-128.png;container=0;" vertex="1" parent="iHK89jVl_XGPjr_3aYdO-27">
          <mxGeometry x="10" y="156.44000000000005" width="60" height="60" as="geometry" />
        </mxCell>
        <mxCell id="iHK89jVl_XGPjr_3aYdO-23" value="Mini Bell Pepper" style="shape=image;html=1;verticalAlign=top;verticalLabelPosition=bottom;labelBackgroundColor=#ffffff;imageAspect=0;image=https://cdn2.iconfinder.com/data/icons/free-outline-fruit-by-ibrahim-studio/100/Pepper-128.png;container=0;" vertex="1" parent="iHK89jVl_XGPjr_3aYdO-27">
          <mxGeometry x="10" y="396.44000000000005" width="60" height="60" as="geometry" />
        </mxCell>
      </root>
    </mxGraphModel>
  </diagram>
</mxfile>
